<svg xmlns="http://www.w3.org/2000/svg" width="69.033" height="42.394" viewBox="0 0 69.033 42.394"><g transform="translate(-43 -449.606)"><rect width="23" height="24" transform="matrix(0.966, 0.259, -0.259, 0.966, 89.817, 449.606)" fill="#f6cb1a"/><g transform="translate(61 457)" fill="none" stroke="#000" stroke-width="2"><circle cx="17.5" cy="17.5" r="17.5" stroke="none"/><circle cx="17.5" cy="17.5" r="16.5" fill="none"/></g><g transform="matrix(0.998, 0.07, -0.07, 0.998, 66.864, 460.262)" fill="none" stroke="#000" stroke-width="2"><circle cx="13" cy="13" r="13" stroke="none"/><circle cx="13" cy="13" r="12" fill="none"/></g><g transform="matrix(0.998, 0.07, -0.07, 0.998, 48.724, 461.257)" fill="none" stroke="#000" stroke-width="2"><circle cx="12" cy="12" r="12" stroke="none"/><circle cx="12" cy="12" r="11" fill="none"/></g><g transform="matrix(0.998, 0.07, -0.07, 0.998, 52.436, 465.526)" fill="none" stroke="#000" stroke-width="2"><circle cx="8.5" cy="8.5" r="8.5" stroke="none"/><circle cx="8.5" cy="8.5" r="7.5" fill="none"/></g><circle cx="6.5" cy="6.5" r="6.5" transform="translate(43 478)" fill="#16c8f1"/><text transform="translate(73 480)" font-size="16" font-family="LibreFranklin-Bold, Libre Franklin" font-weight="700"><tspan x="0" y="0">$</tspan></text></g></svg>