<svg xmlns="http://www.w3.org/2000/svg" width="61.336" height="47.5" viewBox="0 0 61.336 47.5"><g transform="translate(-220 -443)"><circle cx="13.5" cy="13.5" r="13.5" transform="translate(220 443)" fill="#f6cb1a"/><line x2="8" transform="translate(239.5 489.5)" fill="none" stroke="#000" stroke-width="2"/><line x2="8" transform="translate(258.5 489.5)" fill="none" stroke="#000" stroke-width="2"/><rect width="13" height="13" transform="matrix(0.875, -0.485, 0.485, 0.875, 263.664, 478.966)" fill="#16c8f1"/><g transform="translate(237 457)" fill="none" stroke="#000" stroke-width="2"><rect width="31" height="29" stroke="none"/><rect x="1" y="1" width="29" height="27" fill="none"/></g><line x2="5" transform="translate(262.5 464.5)" fill="none" stroke="#000" stroke-width="2"/><line x2="5" transform="translate(262.5 478.5)" fill="none" stroke="#000" stroke-width="2"/><g transform="translate(246.5 469)" fill="none" stroke="#000" stroke-width="2"><circle cx="3.5" cy="3.5" r="3.5" stroke="none"/><circle cx="3.5" cy="3.5" r="2.5" fill="none"/></g><g transform="translate(242 464)" fill="none" stroke="#000" stroke-width="2"><circle cx="8" cy="8" r="8" stroke="none"/><circle cx="8" cy="8" r="7" fill="none"/></g><line y2="5" transform="translate(250 464.5)" fill="none" stroke="#000" stroke-width="1"/><line y2="4" transform="translate(250 475.5)" fill="none" stroke="#000" stroke-width="1"/><line x1="4.5" transform="translate(242.5 472.5)" fill="none" stroke="#000" stroke-width="1"/><line x1="4.5" transform="translate(252.5 472.5)" fill="none" stroke="#000" stroke-width="1"/></g></svg>