<svg xmlns="http://www.w3.org/2000/svg" width="36" height="36" viewBox="0 0 36 36"><g transform="translate(-24 -677)"><circle cx="18" cy="18" r="18" transform="translate(24 677)" fill="#e9edf3"/><path d="M18.564,12.185A4.367,4.367,0,0,1,20.648,8.51,4.508,4.508,0,0,0,17.118,6.6c-1.5-.152-2.933.885-3.7.885s-1.938-.863-3.185-.84a4.723,4.723,0,0,0-3.993,2.42c-1.7,2.954-.436,7.33,1.223,9.726.811,1.173,1.778,2.49,3.047,2.443,1.222-.049,1.685-.791,3.162-.791s1.893.791,3.187.767c1.315-.024,2.149-1.2,2.954-2.371a10.641,10.641,0,0,0,1.337-2.745,4.264,4.264,0,0,1-2.59-3.9ZM16.133,5.011a4.254,4.254,0,0,0,1-3.083A4.328,4.328,0,0,0,14.295,3.39,4.047,4.047,0,0,0,13.27,6.377,3.58,3.58,0,0,0,16.133,5.011Z" transform="translate(28.564 683.072)"/></g></svg>