<svg xmlns="http://www.w3.org/2000/svg" xmlns:xlink="http://www.w3.org/1999/xlink" width="375" height="812" viewBox="0 0 375 812"><defs><clipPath id="b"><rect width="375" height="812"/></clipPath></defs><g id="a" clip-path="url(#b)"><rect width="375" height="812" fill="#fff"/><rect width="375" height="812" fill="#1f518a"/><path d="M-1509.221,43.422l2.626,338.929h62.43V108.4s1.2-26.116-18.08-45.263S-1509.221,43.422-1509.221,43.422Z" transform="translate(1664 114)" fill="#16c8f1"/><rect width="375" height="501" transform="translate(0 311)" fill="#fff"/><path d="M-1511.507-149.649v108.2l241.338,239.022v-347.22Z" transform="translate(1665 113)" fill="#f6cb1a"/><ellipse cx="86" cy="83" rx="86" ry="83" transform="translate(-42 18)" fill="#fe5145"/><circle cx="129.5" cy="129.5" r="129.5" transform="translate(203 -85)" fill="#fe5145"/><circle cx="65.5" cy="65.5" r="65.5" transform="translate(266 -21)" fill="#1f518a"/><circle cx="25" cy="25" r="25" transform="translate(302 23)" fill="#fff"/><rect width="5" height="5" transform="translate(319 40)" fill="#1f518a"/><rect width="5" height="5" transform="translate(330 40)" fill="#1f518a"/><rect width="5" height="5" transform="translate(330 51)" fill="#1f518a"/><rect width="5" height="5" transform="translate(319 51)" fill="#1f518a"/><line x2="327" y2="1" transform="translate(24.5 648.5)" fill="none" stroke="#707070" stroke-width="1" opacity="0.122"/><line y2="112" transform="translate(187.5 449.5)" fill="none" stroke="#707070" stroke-width="1" opacity="0.12"/></g></svg>