<svg xmlns="http://www.w3.org/2000/svg" xmlns:xlink="http://www.w3.org/1999/xlink" width="375" height="812" viewBox="0 0 375 812"><defs><clipPath id="b"><rect width="375" height="812"/></clipPath></defs><g id="a" clip-path="url(#b)"><rect width="375" height="812" fill="#fff"/><path d="M-626.351,659.512s120.791,18.6,235.85-38.891,84.415-159.874,84.415-159.874-65.706-86.6-159.081-181.033-161.184-74.53-161.184-74.53Z" transform="translate(557 47)" fill="#16c8f1"/><path d="M-348.523,463.713s-.817-130.935,38.293-217.591,153.653-131.4,153.653-131.4V668.314s-.749,7.6-15.649-30.767C-186.5,600.782-204.62,517.8-246.81,483.078-316.75,406.031-348.523,463.713-348.523,463.713Z" transform="translate(557 47)" fill="#fbf0e2"/><path d="M-337.68,426.031s68.434,101.436-25.813,169.433S-578.1,654.581-578.1,654.581V795.414l405.792,1.221V645.923S-188.6,546.579-235.6,494.045-337.68,426.031-337.68,426.031Z" transform="translate(557 47)" fill="#1f518a"/><path d="M-351.539,466.306s-35.474-105.175-111.312-182.3-163.819-43.6-163.819-43.6V-51.374l453.28,4.437S-279.659,75.465-324.2,203.776-351.539,466.306-351.539,466.306Z" transform="translate(557 47)" fill="#f6cb1a"/><path d="M-162.944-47S-279.318-12.669-353.427,123.494s5.124,342.812,5.124,342.812-.283-149.74,46.057-235.443,139.3-107.369,139.3-107.369Z" transform="translate(557 47)" fill="#fe5145"/><rect width="28" height="28" transform="translate(274.414 350.201) rotate(45)" fill="#1f518a"/><rect width="24" height="24" transform="translate(350.586 509.029) rotate(45)" fill="#fe5145"/><circle cx="25" cy="25" r="25" transform="translate(67 194)" fill="#fff"/><circle cx="25" cy="25" r="25" transform="translate(275 90)" fill="#1f518a"/><ellipse cx="26" cy="25.5" rx="26" ry="25.5" transform="translate(351 406)" fill="#16c8f1"/><circle cx="96" cy="96" r="96" transform="translate(281 170)" fill="#1f518a"/><circle cx="70" cy="70" r="70" transform="translate(305 196)" fill="#16c8f1"/><circle cx="29" cy="29" r="29" transform="translate(348 237)" fill="#1f518a"/><circle cx="75" cy="75" r="75" transform="translate(-75 10)" fill="#1f518a"/><path d="M-501.452,38.169H-614.444S-609.834,64.458-595.86,78s37.311,14.34,37.311,14.34,22.576,2.046,40.411-14.085S-501.452,38.169-501.452,38.169Z" transform="translate(557 47)" fill="#fff"/><path d="M13.5,0,27,25H0Z" transform="matrix(0.966, 0.259, -0.259, 0.966, 145.735, 38.533)" fill="#1f518a"/><path d="M13.5,0,27,25H0Z" transform="translate(180.403 87.978) rotate(76)" fill="#1f518a"/><path d="M13.5,0,27,25H0Z" transform="translate(214.403 53.978) rotate(76)" fill="#1f518a"/><circle cx="90.5" cy="90.5" r="90.5" transform="translate(-90 279)" fill="#1f518a"/><circle cx="67.5" cy="67.5" r="67.5" transform="translate(-66 302)" fill="#fe5145"/><path d="M-349.595,409.023s1.1,20.34-5.777,37.291-23.278,30.647-23.278,30.647,21.526-.656,38.27,6.847,29.923,22.86,29.923,22.86-.92-22.083,6.759-39.1,24.046-30.1,24.046-30.1-23.806,1.273-41.177-6.058S-349.595,409.023-349.595,409.023Z" transform="translate(557 47)" fill="#fff"/></g></svg>